<?xml version="1.0" encoding="UTF-8"?>
<svg version="1.1" xmlns="http://www.w3.org/2000/svg" width="2560" height="819">
<path d="M0 0 C2.1980588 0.01611552 4.3942803 0.00001064 6.59228516 -0.01904297 C20.18351132 -0.03991042 33.42611989 1.9831294 46.44775391 5.95361328 C47.26429443 6.20119385 48.08083496 6.44877441 48.92211914 6.70385742 C73.95097092 14.69472456 94.86549502 29.45692455 113.69775391 47.39111328 C114.75736328 48.37144531 114.75736328 48.37144531 115.83837891 49.37158203 C145.12806746 77.29203718 161.92836808 117.93115723 169.01025391 157.07861328 C169.16977539 157.94341309 169.32929688 158.80821289 169.49365234 159.69921875 C170.50073189 165.71168369 170.93442484 171.68935979 171.24536133 177.76928711 C171.31174931 179.01611141 171.31174931 179.01611141 171.37947845 180.28812408 C171.48751438 182.3223515 171.59290352 184.35671919 171.69775391 186.39111328 C172.53228151 186.38742611 173.36680912 186.38373894 174.22662544 186.37994003 C194.53256532 186.29160248 214.83847209 186.22541021 235.14456367 186.18386459 C244.96444728 186.16323941 254.78420262 186.13511963 264.60400391 186.08935547 C273.16295389 186.04948639 281.72181098 186.02368015 290.28085124 186.0147593 C294.81283052 186.00954467 299.34454404 185.99728934 303.87643814 185.96819305 C308.1429485 185.94102281 312.40908388 185.93267151 316.67567253 185.93868256 C318.24057872 185.93758303 319.80549758 185.92963854 321.3703289 185.91429138 C323.5100497 185.89433712 325.64836187 185.89919237 327.78811646 185.91009521 C328.98460375 185.90640804 330.18109104 185.90272087 331.41383553 185.89892197 C336.61842455 186.67898201 339.52337336 188.98679004 342.85475659 192.97045523 C345.22748012 197.37430095 345.18342634 200.56023084 345.00385857 205.46657848 C344.97887438 206.78288972 344.97887438 206.78288972 344.95338546 208.12579311 C344.89273482 210.88223635 344.79980055 213.63591512 344.69775391 216.39111328 C344.65560154 217.65015332 344.65560154 217.65015332 344.61259761 218.9346285 C344.40250066 225.02086063 344.10679659 231.10166483 343.80007935 237.18367004 C343.70209771 239.19899856 343.60454217 241.21434783 343.50736988 243.22971553 C343.24197984 248.70835712 342.97055737 254.18668493 342.69804025 259.664976 C342.40407948 265.59594626 342.1157999 271.52719321 341.82675171 277.45840454 C341.29340712 288.38457721 340.75559515 299.31052425 340.21535367 310.23635795 C339.71626896 320.32989367 339.21891249 330.42351264 338.72326279 340.51721764 C338.65656478 341.87535935 338.58986657 343.23350104 338.52316817 344.59164273 C338.42264406 346.63861237 338.32212173 348.68558209 338.22160433 350.73255206 C337.28831577 369.73760086 336.35309945 388.74255402 335.41374397 407.74730396 C335.37840576 408.46225831 335.34306755 409.17721267 335.30665849 409.9138323 C335.01973962 415.71846095 334.73276546 421.52308687 334.44578758 427.3277126 C333.32584687 449.98130784 332.21180829 472.63518641 331.10253906 495.28930664 C329.85414135 520.78449352 328.60158172 546.27947081 327.34272182 571.7741434 C327.20842921 574.49412431 327.07414928 577.21410586 326.93987656 579.93408775 C326.90681579 580.60374068 326.87375503 581.27339362 326.83969242 581.96333906 C326.34175591 592.05078013 325.84702522 602.13837513 325.35391617 612.22605324 C324.79302677 623.6987933 324.22769362 635.17130401 323.65668167 646.64354489 C323.36568523 652.49233741 323.07668212 658.34120983 322.79317474 664.19037056 C322.53327597 669.55131249 322.26750499 674.91193088 321.9971789 680.27235683 C321.9007442 682.20461045 321.80639968 684.13696984 321.71443607 686.06944142 C320.36737769 714.30317798 316.02372433 737.42852701 294.48291016 757.44970703 C278.05944722 771.18180174 259.95794825 772.84379024 239.45620728 772.77879333 C237.30665413 772.78297079 235.1571032 772.78845056 233.00755632 772.79511315 C227.12562285 772.80953232 221.24382993 772.80533402 215.36188889 772.79794633 C209.00865626 772.79320826 202.65545375 772.80573016 196.30223083 772.81596375 C184.58364972 772.8321523 172.86511729 772.8345998 161.14652737 772.82965875 C150.31821322 772.82509553 139.48991564 772.8257083 128.66160202 772.8314991 C127.20718688 772.83225598 125.75277173 772.83301196 124.29835659 772.83376705 C122.10648688 772.83491228 119.91461717 772.83606216 117.72274747 772.83722629 C97.35427517 772.84792575 76.98580836 772.85266221 56.61733437 772.84475613 C55.4664838 772.84431037 55.4664838 772.84431037 54.29238373 772.8438556 C48.06253872 772.84140685 41.83269379 772.83879517 35.60284886 772.83617147 C11.30535606 772.82606994 -12.99206762 772.83442491 -37.28955078 772.85766602 C-64.61086454 772.88375743 -91.93213671 772.89658157 -119.25346339 772.88947827 C-122.16846314 772.88876224 -125.08346291 772.88808785 -127.99846268 772.88743782 C-128.71616823 772.88726801 -129.43387378 772.8870982 -130.17332798 772.88692325 C-140.9910904 772.88462357 -151.8088141 772.89258136 -162.62656784 772.90572929 C-174.93370051 772.92066108 -187.2407255 772.92108287 -199.54785822 772.90365838 C-205.82414327 772.89514858 -212.10025558 772.89299869 -218.3765316 772.90830994 C-224.12802525 772.92216701 -229.87919832 772.91738032 -235.63067348 772.8980707 C-237.7052343 772.89431358 -239.77982086 772.89722424 -241.85435872 772.90768235 C-264.32695002 773.01286625 -281.62168444 768.51176797 -298.30224609 752.39111328 C-311.2273646 737.55438061 -316.92292914 719.46854304 -317.76887608 700.05197716 C-317.80717414 699.23541568 -317.84547221 698.41885421 -317.88493082 697.57754844 C-318.01240754 694.84182549 -318.1350478 692.10590753 -318.25770569 689.3699646 C-318.34902845 687.38817473 -318.44064555 685.40639841 -318.53253168 683.42463458 C-318.78418139 677.97821388 -319.03157318 672.53160682 -319.27825749 667.08495927 C-319.54507823 661.20978765 -319.8157937 655.3347953 -320.08598328 649.45977783 C-320.6149132 637.94412559 -321.14006186 626.4283039 -321.6637345 614.9124115 C-322.08986915 605.54159485 -322.51711086 596.17082929 -322.94512749 586.80009842 C-323.06844178 584.10006019 -323.19175126 581.40002174 -323.3150596 578.69998324 C-323.345719 578.02865301 -323.3763784 577.35732277 -323.40796688 576.6656492 C-324.27053178 557.77767482 -325.13160718 538.88963301 -325.9897089 520.00145531 C-326.03824427 518.93313893 -326.03824427 518.93313893 -326.08776014 517.84324041 C-326.25174181 514.23375763 -326.41571226 510.62427435 -326.57967991 507.01479094 C-326.61224225 506.29798924 -326.64480458 505.58118754 -326.67835365 504.84266458 C-326.74420284 503.39311007 -326.81005114 501.94355552 -326.87589856 500.49400093 C-327.89822218 477.98958722 -328.92591733 455.48542433 -329.95776367 432.98144531 C-331.1183245 407.67017313 -332.2743863 382.35870078 -333.42419142 357.04693758 C-333.54717276 354.3399827 -333.67017091 351.63302858 -333.79318047 348.92607498 C-333.82346328 348.25961092 -333.85374609 347.59314686 -333.88494656 346.90648691 C-334.33985776 336.89690676 -334.79827437 326.88749193 -335.25850105 316.87815475 C-335.78320581 305.46562293 -336.30325778 294.05289037 -336.8174947 282.63988189 C-337.07950688 276.82761814 -337.3435413 271.01546678 -337.61344528 265.20356369 C-339.46675743 225.23213636 -339.46675743 225.23213636 -339.61497498 207.22793579 C-339.63258662 206.06822026 -339.65019827 204.90850472 -339.6683436 203.71364629 C-339.66745672 202.66942058 -339.66656984 201.62519486 -339.66565609 200.54932594 C-339.66861374 199.66359953 -339.67157139 198.77787311 -339.67461866 197.8653065 C-339.01218779 193.4638492 -336.93835813 190.92871685 -333.59959412 188.10699463 C-327.53560006 184.9732207 -320.19586139 185.8716196 -313.54467773 185.93701172 C-311.9377546 185.93814096 -310.33082941 185.93750484 -308.72390747 185.9352417 C-304.37510499 185.93409661 -300.02674609 185.95757253 -295.67804646 185.98553753 C-291.12835914 186.01058545 -286.57866104 186.01289585 -282.02891541 186.01763916 C-273.41942907 186.03005898 -264.81014652 186.06286712 -256.20074981 186.10303712 C-246.39669158 186.14778577 -236.59262349 186.16974965 -226.78848851 186.18981886 C-206.62629408 186.23160064 -186.46428294 186.30193337 -166.30224609 186.39111328 C-166.30725522 185.25963615 -166.30725522 185.25963615 -166.31236553 184.1053009 C-166.31496285 183.11527573 -166.31756018 182.12525055 -166.32023621 181.10522461 C-166.32524533 179.63343498 -166.32524533 179.63343498 -166.33035564 178.13191223 C-166.29892328 175.06712471 -166.03536306 172.1124041 -165.60302734 169.07861328 C-165.37147949 167.45088989 -165.37147949 167.45088989 -165.13525391 165.7902832 C-164.96348633 164.66855713 -164.79171875 163.54683105 -164.61474609 162.39111328 C-164.43395508 161.20557861 -164.25316406 160.02004395 -164.06689453 158.79858398 C-160.31927288 135.21953175 -152.87440967 112.31882996 -141.30224609 91.39111328 C-140.91810547 90.69147461 -140.53396484 89.99183594 -140.13818359 89.27099609 C-132.25039193 75.04116548 -122.95696217 62.6326742 -111.71875 50.875 C-110.77555322 49.88693553 -109.8376872 48.89375435 -108.90527344 47.89550781 C-96.54555675 34.68458281 -82.33128071 24.68913337 -66.30224609 16.39111328 C-65.54532471 15.98892578 -64.78840332 15.58673828 -64.00854492 15.17236328 C-57.75938256 11.92778479 -51.41793391 9.47905568 -44.73974609 7.26611328 C-43.78261719 6.93224609 -42.82548828 6.59837891 -41.83935547 6.25439453 C-28.10903432 1.662615 -14.42969375 -0.12508514 0 0 Z M-28.30224609 50.39111328 C-29.44435547 50.76494141 -30.58646484 51.13876953 -31.76318359 51.52392578 C-63.4668472 62.89507354 -88.59407118 88.47056548 -103.30224609 118.39111328 C-113.15779887 139.7524938 -119.30224609 162.80022066 -119.30224609 186.39111328 C-38.78224609 186.39111328 41.73775391 186.39111328 124.69775391 186.39111328 C123.96982413 173.16575526 123.96982413 173.16575526 122.07275391 160.20361328 C121.90090576 159.32979004 121.72905762 158.4559668 121.55200195 157.55566406 C116.11839504 131.48087775 104.95318663 107.68251083 87.69775391 87.39111328 C86.88693359 86.43333984 86.07611328 85.47556641 85.24072266 84.48876953 C67.97860096 64.61127234 42.35658833 48.76473452 15.69775391 46.39111328 C0.60256199 45.48936068 -13.86260779 45.66035384 -28.30224609 50.39111328 Z M-90.828125 318.48242188 C-107.40855288 335.8011844 -115.55493479 358.53084875 -115.30224609 382.39111328 C-114.35502899 406.56500125 -103.06757961 427.63452408 -85.75927734 444.21533203 C-58.73859432 468.14302749 -23.51503303 479.28881044 10.04150391 490.94970703 C22.72387209 495.37029844 34.95802556 499.83391138 46.69775391 506.39111328 C47.77798828 506.97505859 48.85822266 507.55900391 49.97119141 508.16064453 C68.34174412 518.41020984 83.90214961 533.15337458 90.02197266 553.75048828 C93.97103703 569.18151438 91.13517331 584.17343794 83.72119141 598.12548828 C80.60961993 603.14725229 76.93207442 607.29362898 72.69775391 611.39111328 C72.13443359 611.95185547 71.57111328 612.51259766 70.99072266 613.09033203 C51.60347307 631.06245391 20.92946392 636.26385201 -4.58984375 635.30517578 C-40.23666195 633.18399124 -74.46195853 617.91963695 -102.18115234 595.8984375 C-105.40983868 593.15378548 -105.40983868 593.15378548 -109.39331055 592.63476562 C-113.55085826 594.28204569 -115.73364616 599.09906955 -118.14648438 602.68212891 C-119.37587495 604.4999857 -120.63418061 606.29602219 -121.89208984 608.09423828 C-122.73902223 609.33775139 -123.58410648 610.58252544 -124.42724609 611.82861328 C-125.04925903 612.71456177 -125.04925903 612.71456177 -125.68383789 613.6184082 C-127.87046954 616.8086358 -127.87046954 616.8086358 -127.88818359 620.52001953 C-104.42581309 648.2009936 -59.73447829 662.75457026 -25.30224609 668.39111328 C-24.22354248 668.56900391 -24.22354248 668.56900391 -23.12304688 668.75048828 C13.82546446 674.52879864 54.33249897 669.86781493 85.69775391 648.39111328 C89.5065299 645.53951659 93.13564084 642.54436745 96.69775391 639.39111328 C97.39384766 638.77880859 98.08994141 638.16650391 98.80712891 637.53564453 C116.58741314 620.85773792 127.22967121 595.94056388 128.03369141 571.71923828 C128.06339209 569.3600143 128.0759653 567.00052202 128.07275391 564.64111328 C128.07114258 563.40699707 128.06953125 562.17288086 128.06787109 560.90136719 C127.94507803 551.76532247 126.95037924 543.98572397 123.69775391 535.39111328 C123.40900391 534.50294922 123.12025391 533.61478516 122.82275391 532.69970703 C118.81997771 521.28107315 110.9496812 512.01487785 102.69775391 503.39111328 C102.04677734 502.66537109 101.39580078 501.93962891 100.72509766 501.19189453 C89.12107773 488.73825465 73.70107161 480.09856132 58.69775391 472.39111328 C57.96395508 472.01390137 57.23015625 471.63668945 56.47412109 471.24804688 C39.26287705 462.52137874 21.14085284 455.94512987 2.93167114 449.64115906 C-26.71462308 439.37725666 -57.39962719 428.43944887 -73.30224609 399.39111328 C-74.61774595 396.42369065 -75.59259657 393.55469105 -76.30224609 390.39111328 C-76.52912109 389.46298828 -76.75599609 388.53486328 -76.98974609 387.57861328 C-78.60261924 371.12730719 -75.25287497 356.98195099 -65.23193359 343.63330078 C-50.9427245 326.88573313 -30.64113556 318.70666698 -9.12744141 316.66455078 C24.10532682 314.28743042 61.72463146 324.3048151 88.92041016 343.68798828 C91.99046896 345.57061225 93.18434736 345.89317458 96.69775391 345.39111328 C98.45112106 343.70318799 98.45112106 343.70318799 99.74072266 341.34033203 C100.51512695 340.07479492 100.51512695 340.07479492 101.30517578 338.78369141 C102.08731445 337.44467773 102.08731445 337.44467773 102.88525391 336.07861328 C103.68479492 334.75700195 103.68479492 334.75700195 104.50048828 333.40869141 C105.49152216 331.76943412 106.47499692 330.12556672 107.44848633 328.47583008 C108.48239941 326.75048636 109.58202204 325.06471108 110.69775391 323.39111328 C111.15445964 320.8914448 111.15445964 320.8914448 110.69775391 318.39111328 C109.26909501 316.66288488 109.26909501 316.66288488 107.21728516 315.38330078 C106.4833252 314.87895508 105.74936523 314.37460937 104.99316406 313.85498047 C46.58615426 276.6066896 -38.26267497 265.81604619 -90.828125 318.48242188 Z " fill="#EE4C2C" transform="translate(339.30224609375,-0.39111328125)"/>
<path d="M0 0 C1.24245483 -0.00574036 1.24245483 -0.00574036 2.51000977 -0.01159668 C4.25831317 -0.01431425 6.00665734 -0.00696381 7.75488281 0.00976562 C10.42865777 0.03117918 13.09974596 0.00996056 15.7734375 -0.015625 C17.47396425 -0.01298169 19.17448934 -0.00785665 20.875 0 C22.07201538 -0.01214539 22.07201538 -0.01214539 23.29321289 -0.02453613 C26.75985341 0.03393237 29.01977199 0.25238347 31.93457031 2.19824219 C33.80612855 5.10347456 33.97658079 6.94620866 34.046875 10.390625 C34.07910156 11.50566406 34.11132812 12.62070312 34.14453125 13.76953125 C34.15871094 14.92839844 34.17289063 16.08726562 34.1875 17.28125 C34.21714844 18.45558594 34.24679687 19.62992187 34.27734375 20.83984375 C34.34800727 23.73704822 34.40072266 26.63344955 34.4375 29.53125 C35.08332031 28.99757813 35.72914062 28.46390625 36.39453125 27.9140625 C63.73089596 6.2992625 98.57192076 -2.64504247 133.05664062 1.24975586 C160.98201562 4.90109711 186.1530639 17.08528026 206.4375 36.53125 C207.32050781 37.33949219 208.20351562 38.14773438 209.11328125 38.98046875 C231.327149 60.00038039 244.73252221 90.98710774 245.71875 121.44921875 C246.38413731 156.9319212 237.05558495 188.84058035 212.578125 215.3125 C210.2270914 217.74933775 207.84108621 220.14623865 205.4375 222.53125 C204.69113281 223.28664063 203.94476562 224.04203125 203.17578125 224.8203125 C179.93042812 247.20472663 147.04654064 257.98542438 115.14477539 257.83374023 C87.52281002 257.16140665 54.57637827 248.67012827 34.4375 228.53125 C34.43418985 229.33154507 34.43087971 230.13184013 34.42746925 230.95638657 C34.34629012 250.4188621 34.25421441 269.88125806 34.14997292 289.34362411 C34.09982622 298.75543336 34.05338354 308.1672338 34.015625 317.57910156 C33.98270979 325.78136697 33.94288118 333.98356449 33.89470994 342.18575501 C33.86944027 346.52975569 33.84766036 350.8737113 33.83415604 355.21776581 C33.82133993 359.30532174 33.79929043 363.39272318 33.77011681 367.48019409 C33.7610375 368.98140037 33.75534997 370.48263152 33.75328636 371.98386383 C33.7499665 374.03190052 33.7333178 376.07990273 33.7159729 378.12786865 C33.71044214 379.27457912 33.70491138 380.4212896 33.69921303 381.60274887 C33.44094331 384.49272028 33.10029319 386.16901341 31.4375 388.53125 C27.72765074 389.76786642 24.27451708 389.6935561 20.41015625 389.69921875 C19.62483017 389.70254715 18.83950409 389.70587555 18.03038025 389.70930481 C16.37027573 389.71436463 14.71016105 389.71671343 13.05004883 389.71655273 C10.51301287 389.71873879 7.97641213 389.73690296 5.43945312 389.75585938 C3.82552232 389.75879359 2.21158945 389.7607782 0.59765625 389.76171875 C-0.1597435 389.76890427 -0.91714325 389.77608978 -1.69749451 389.78349304 C-8.45500215 389.75424225 -8.45500215 389.75424225 -11.5625 387.53125 C-12.95634228 384.74356543 -12.6918862 382.46685231 -12.69672108 379.34610939 C-12.69907331 378.70172971 -12.70142554 378.05735004 -12.70384905 377.3934437 C-12.71055696 375.21342053 -12.71008029 373.03345672 -12.70967102 370.85342407 C-12.71296852 369.28299886 -12.71669384 367.71257451 -12.7208125 366.14215124 C-12.73085336 361.81039149 -12.73455263 357.4786456 -12.73720181 353.14687586 C-12.74109862 348.48148157 -12.75067729 343.81609832 -12.75941467 339.15071106 C-12.77919538 327.87668139 -12.78924673 316.60265079 -12.79814246 305.3286081 C-12.8025222 300.02437313 -12.80788977 294.72013917 -12.81313133 289.415905 C-12.83014422 271.79245269 -12.84463999 254.16900102 -12.85188007 236.54554176 C-12.85379008 231.97013981 -12.8557104 227.39473787 -12.85766602 222.81933594 C-12.85814976 221.68209195 -12.8586335 220.54484797 -12.8591319 219.37314205 C-12.86743819 200.93664025 -12.89278494 182.50020321 -12.92524669 164.06372972 C-12.95827529 145.15175824 -12.97632497 126.23981972 -12.97952431 107.32781923 C-12.98169317 96.70273409 -12.99049668 86.07774341 -13.01598549 75.45268631 C-13.03763509 66.40693895 -13.04577127 57.36130899 -13.03601871 48.31553866 C-13.03145745 43.69732976 -13.03346561 39.07936339 -13.05278015 34.46118736 C-13.0702949 30.23701992 -13.06951019 26.01327403 -13.05388286 21.78910284 C-13.05148889 20.25746798 -13.05592209 18.72580482 -13.06771151 17.19421346 C-13.08270644 15.11831421 -13.07324704 13.0439328 -13.05748463 10.96807289 C-13.05846144 9.81328835 -13.05943824 8.65850381 -13.06044465 7.4687258 C-11.80808096 0.08078011 -6.42139713 -0.065154 0 0 Z M60.4375 67.53125 C59.67824219 68.19640625 58.91898438 68.8615625 58.13671875 69.546875 C43.26522546 83.41666148 34.24507862 103.47890973 33.05078125 123.6953125 C32.24777155 147.76126994 39.90154549 167.91284095 55.671875 186.109375 C69.61729519 200.96626057 89.63024007 210.90187065 110.02734375 211.84765625 C122.11592898 212.18532085 132.95986315 211.46496094 144.4375 207.53125 C145.48808594 207.180625 146.53867188 206.83 147.62109375 206.46875 C168.68398442 198.58043724 184.34414064 181.68042087 193.7109375 161.63671875 C197.45240765 153.11403079 199.8184392 143.81716205 200.4375 134.53125 C200.4890625 133.76425781 200.540625 132.99726562 200.59375 132.20703125 C201.37703357 110.37300172 192.98785561 89.68633387 178.9375 73.19140625 C161.88888735 55.05061685 141.70971322 47.42663262 117.4375 45.53125 C96.19156738 45.53125 76.26030498 53.43119599 60.4375 67.53125 Z " fill="#EE4C2C" transform="translate(1733.5625,429.46875)"/>
<path d="M0 0 C1.73046875 2.24609375 1.73046875 2.24609375 2.23046875 5.57421875 C1.65257321 9.81813912 0.14018257 12.57009447 -2.26953125 15.99609375 C-2.67453857 16.59663574 -3.0795459 17.19717773 -3.49682617 17.81591797 C-4.73599502 19.63954576 -5.99876109 21.44438196 -7.26953125 23.24609375 C-8.00816406 24.30570312 -8.74679687 25.3653125 -9.5078125 26.45703125 C-16.1360011 35.7689497 -16.1360011 35.7689497 -19.26953125 38.24609375 C-23.76695945 38.66946336 -26.36263494 38.02742113 -30.18359375 35.68359375 C-31.09923096 35.13767578 -32.01486816 34.59175781 -32.95825195 34.02929688 C-33.92722412 33.44083984 -34.89619629 32.85238281 -35.89453125 32.24609375 C-66.66539256 14.24532312 -104.87871174 3.49495599 -140.48828125 11.203125 C-158.89135323 16.27917895 -175.73763424 25.83030529 -186.26953125 42.24609375 C-193.38431277 55.47277534 -195.55459925 68.58439247 -191.359375 83.27734375 C-183.80616188 103.85240457 -165.61830231 115.29671415 -146.72290039 124.23046875 C-142.42578683 126.21953179 -138.05872982 127.91648221 -133.609375 129.53125 C-132.79438538 129.82928024 -131.97939575 130.12731049 -131.13970947 130.43437195 C-123.17962982 133.32153083 -115.1544572 136.00761489 -107.12231445 138.68603516 C-89.8241991 144.45632028 -72.66588064 150.19479677 -56.26953125 158.24609375 C-55.23860352 158.74850586 -54.20767578 159.25091797 -53.14550781 159.76855469 C-40.47984377 165.99848988 -28.30026374 172.39618209 -17.26953125 181.24609375 C-16.44388672 181.89892334 -16.44388672 181.89892334 -15.6015625 182.56494141 C5.02692091 198.96269753 19.77746408 220.0828936 23.48046875 246.62109375 C23.59515418 248.1607456 23.67323761 249.70323758 23.73046875 251.24609375 C23.8078125 253.03853516 23.8078125 253.03853516 23.88671875 254.8671875 C24.80458261 286.60934729 14.51662021 313.92898071 -6.328125 337.58203125 C-30.8279632 363.35524982 -68.16907414 374.23625752 -102.80078125 375.4296875 C-146.71297743 376.35708341 -192.930826 365.55658266 -229.26953125 340.24609375 C-229.87168457 339.83182129 -230.47383789 339.41754883 -231.09423828 338.99072266 C-250.4123196 325.66564276 -250.4123196 325.66564276 -252.23828125 320.51171875 C-252.28101992 316.04552803 -250.37997147 313.3179173 -247.95703125 309.74609375 C-247.28220703 308.71246704 -247.28220703 308.71246704 -246.59375 307.65795898 C-245.17496966 305.50441792 -243.72811361 303.37284806 -242.26953125 301.24609375 C-241.79854004 300.55660645 -241.32754883 299.86711914 -240.84228516 299.15673828 C-232.85362757 287.53814191 -232.85362757 287.53814191 -230.26953125 286.24609375 C-225.50235665 285.82057189 -223.01750591 286.57878263 -219.08203125 289.24609375 C-218.12039063 289.88933594 -217.15875 290.53257812 -216.16796875 291.1953125 C-213.47378754 293.10157279 -210.84026792 295.06948728 -208.20703125 297.05859375 C-184.81154773 314.21528167 -155.9460098 324.73082528 -127.26953125 328.24609375 C-126.01914062 328.40078125 -124.76875 328.55546875 -123.48046875 328.71484375 C-94.68989014 331.42744645 -64.35873383 323.14503539 -41.95703125 304.87109375 C-31.28024414 295.08034706 -25.06421908 281.48525017 -24.05078125 267.15234375 C-23.59769821 251.29443719 -28.8995178 237.65794063 -39.58203125 225.93359375 C-60.34834326 204.0976513 -88.15722148 195.12578103 -116.01118469 185.96627808 C-151.98255268 174.13636081 -187.79934121 162.33475337 -215.26953125 135.24609375 C-216.15640625 134.37210938 -217.04328125 133.498125 -217.95703125 132.59765625 C-235.27573006 114.5925456 -242.85200627 90.48196244 -242.484375 65.82421875 C-241.56969964 39.12251559 -229.08321213 14.95459137 -210 -3.359375 C-154.23407865 -52.26425309 -56.70636543 -43.82299153 0 0 Z " fill="#EE4C2C" transform="translate(1075.26953125,312.75390625)"/>
<path d="M0 0 C1.15139465 -0.01891296 1.15139465 -0.01891296 2.3260498 -0.03820801 C3.14593384 -0.03011108 3.96581787 -0.02201416 4.81054688 -0.01367188 C6.08629578 -0.01941223 6.08629578 -0.01941223 7.38781738 -0.02526855 C9.18319891 -0.02798646 10.97862012 -0.0206337 12.77392578 -0.00390625 C15.5201048 0.01750645 18.26366785 -0.00371059 21.00976562 -0.02929688 C22.75586514 -0.02665358 24.50196303 -0.02152855 26.24804688 -0.01367188 C27.06793091 -0.0217688 27.88781494 -0.02986572 28.73254395 -0.03820801 C29.50014038 -0.02559937 30.26773682 -0.01299072 31.05859375 0 C32.06641907 0.00477356 32.06641907 0.00477356 33.09460449 0.00964355 C36.03441301 0.78146154 37.15165154 2.1467995 39.02929688 4.51757812 C39.53710556 7.7428093 39.53710556 7.7428093 39.54827881 11.64227295 C39.55578006 12.36031231 39.56328131 13.07835167 39.57100987 13.81814981 C39.59131165 16.22443748 39.58318 18.6297851 39.57519531 21.03613281 C39.58392902 22.76084832 39.59441409 24.48555573 39.60652161 26.21025085 C39.63442718 30.89381316 39.63778529 35.57711167 39.63680172 40.26074505 C39.63992691 45.15486779 39.66553689 50.04887104 39.68878174 54.94293213 C39.72937549 64.21115596 39.74969038 73.47930937 39.76275563 82.74760842 C39.77861425 93.29895426 39.81702507 103.85018007 39.85734892 114.40145636 C39.93979405 136.10679071 39.99385733 157.81211948 40.02929688 179.51757812 C40.70657837 179.03805191 41.38385986 178.5585257 42.08166504 178.06446838 C42.9751062 177.43483688 43.86854736 176.80520538 44.7890625 176.15649414 C45.67259399 175.53259293 46.55612549 174.90869171 47.46643066 174.2658844 C50.70656585 172.05556665 54.01224267 170.18108293 57.52929688 168.45507812 C58.20234863 168.12419189 58.87540039 167.79330566 59.56884766 167.45239258 C90.13736589 152.87772214 123.50650518 151.74099334 155.40429688 162.62182617 C185.95839671 173.60645572 209.90659714 196.90988645 223.84179688 225.95507812 C226.23448073 231.18276751 228.16239382 236.52129276 229.84179688 242.01757812 C230.03684814 242.64462646 230.23189941 243.2716748 230.43286133 243.91772461 C233.79247657 255.71565002 234.32853832 268.00517463 234.31982422 280.19213867 C234.32583009 281.58686169 234.33264023 282.98158143 234.34017944 284.376297 C234.3576112 288.11111374 234.36252423 291.84583854 234.36381102 295.58069205 C234.36524323 297.9187467 234.36953219 300.25677869 234.37480545 302.59482765 C234.39321097 310.7626962 234.40148569 318.93050006 234.39990234 327.09838867 C234.39869482 334.69964573 234.41994017 342.3006217 234.45138967 349.90180749 C234.47751632 356.4507517 234.48827158 362.9996036 234.48699152 369.54859954 C234.48648199 373.45093971 234.49216407 377.35302783 234.51334763 381.25531578 C234.53267607 384.91388406 234.53289225 388.57195765 234.51831436 392.23054314 C234.51522147 394.21205918 234.53192928 396.19357507 234.54919434 398.17501831 C234.54080536 399.35364944 234.53241638 400.53228058 234.52377319 401.74662781 C234.52486273 402.77061519 234.52595226 403.79460257 234.52707481 404.84961987 C233.89809051 408.2208096 232.67254426 409.40471268 230.02929688 411.51757812 C228.09460449 412.01878357 228.09460449 412.01878357 226.05859375 412.01928711 C224.9071991 412.03335854 224.9071991 412.03335854 223.73254395 412.04771423 C222.5027179 412.03086327 222.5027179 412.03086327 221.24804688 412.01367188 C220.39754761 412.01512711 219.54704834 412.01658234 218.67077637 412.01808167 C216.875372 412.01642413 215.07995321 412.00487909 213.28466797 411.98413086 C210.53877318 411.95517804 207.79480988 411.96352388 205.04882812 411.9765625 C203.30272501 411.9703247 201.55662797 411.96193343 199.81054688 411.95117188 C198.58072083 411.95557533 198.58072083 411.95557533 197.3260498 411.96006775 C192.89818314 411.88689931 190.16873231 411.73536609 187.02929688 408.51757812 C186.53266144 405.97825432 186.53266144 405.97825432 186.53723145 402.88034058 C186.52909927 401.70597443 186.5209671 400.53160828 186.5125885 399.32165527 C186.52390305 398.03134399 186.53521759 396.74103271 186.546875 395.41162109 C186.5446891 394.03976045 186.54069231 392.66790168 186.53501892 391.29605103 C186.52644349 388.33796603 186.53025341 385.38024358 186.54344177 382.42217636 C186.56379944 377.72925753 186.55378772 373.03670282 186.53918457 368.34378052 C186.51013505 357.5161304 186.52082161 346.68858627 186.53188324 335.86091614 C186.54159268 325.97311977 186.54259914 316.08551551 186.51200247 306.19775116 C186.50090578 302.30541042 186.49806438 298.41344132 186.51515198 294.52111435 C186.63244135 267.05839619 184.8093166 244.04231072 164.79101562 223.18554688 C150.18184066 209.15021839 131.30130087 202.11738272 111.15258789 202.21508789 C90.69668711 202.73513267 72.12909902 211.90078324 58.02929688 226.51757812 C44.42508564 242.24128603 39.55430644 260.47880238 39.62866211 281.00268555 C39.62290094 282.38903387 39.61581064 283.77537719 39.60751343 285.16171265 C39.59255595 288.11409848 39.58661231 291.06630534 39.58804131 294.01872826 C39.59009462 298.6876599 39.57038375 303.35635411 39.54786682 308.02522278 C39.50713679 317.07775705 39.48832598 326.13027147 39.47169495 335.18287659 C39.44924024 346.74565032 39.41585484 358.30836845 39.36449581 369.87105066 C39.344582 374.51332957 39.334995 379.15548141 39.33354366 383.79780138 C39.33079827 386.67582067 39.31998124 389.55376916 39.30703354 392.43175888 C39.30069989 394.40509293 39.30435488 396.37845106 39.30827332 398.35179138 C39.30144531 399.52207886 39.29461731 400.69236633 39.2875824 401.89811707 C39.2859481 402.91695071 39.28431379 403.93578436 39.28262997 404.98549175 C39.02929688 407.51757812 39.02929688 407.51757812 37.02929688 410.51757812 C33.19923417 411.79426569 29.55828107 411.71912733 25.56445312 411.75585938 C24.73473495 411.76393112 23.90501678 411.77200287 23.05015564 411.78031921 C21.29590942 411.79414094 19.54163652 411.80487164 17.78735352 411.81274414 C15.10511585 411.82999248 12.42409993 411.87389803 9.7421875 411.91796875 C8.03711843 411.92809311 6.3320389 411.93661002 4.62695312 411.94335938 C3.82580582 411.96086746 3.02465851 411.97837555 2.19923401 411.99641418 C-1.16145913 411.98331896 -3.41848917 411.91850088 -6.1826663 409.91163111 C-8.57247926 406.71184306 -8.4719522 404.71871518 -8.47406769 400.7427597 C-8.47988145 400.05892812 -8.48569521 399.37509653 -8.49168515 398.67054278 C-8.50633939 396.3680199 -8.49237573 394.06655404 -8.4786377 391.76403809 C-8.4832445 390.10113652 -8.48959592 388.43823903 -8.49754667 386.77535009 C-8.51429359 382.19716547 -8.50596939 377.61931301 -8.4936018 373.04112697 C-8.48457549 368.10717275 -8.49850898 363.17327685 -8.50952148 358.23933411 C-8.52733721 348.57033373 -8.52345314 338.90145733 -8.51187092 329.23245203 C-8.50284887 321.37644914 -8.50160727 313.52048107 -8.50596619 305.66447449 C-8.50657912 304.54770076 -8.50719205 303.43092703 -8.50782356 302.28031167 C-8.50910242 300.01182972 -8.51039927 297.74334778 -8.51171392 295.47486585 C-8.52312867 274.18762725 -8.50999199 252.90045748 -8.48851246 231.61323017 C-8.47064068 213.33538069 -8.47374453 195.05763281 -8.4921875 176.77978516 C-8.51357842 155.57035031 -8.52202995 134.36097583 -8.50973845 113.1515317 C-8.50846421 110.89124839 -8.50720672 108.63096508 -8.50596619 106.37068176 C-8.50534908 105.25848812 -8.50473198 104.14629449 -8.50409618 103.00039801 C-8.50063794 95.15098204 -8.50648182 87.30160427 -8.5158844 79.45219421 C-8.52708602 69.89044897 -8.52410309 60.32883512 -8.50276142 50.76710498 C-8.49222623 45.88561574 -8.48817109 41.00434582 -8.50135803 36.12285805 C-8.51323681 31.65820061 -8.50679445 27.19396676 -8.48544782 22.729348 C-8.48096251 21.11029968 -8.48329101 19.4912159 -8.49295098 17.87219018 C-8.50504084 15.67841028 -8.49271799 13.48609858 -8.47406769 11.29239655 C-8.47341828 10.07186537 -8.47276887 8.8513342 -8.47209978 7.59381723 C-7.67408993 2.69775521 -5.00341563 0.02369865 0 0 Z " fill="#EE4D2C" transform="translate(1147.970703125,276.482421875)"/>
<path d="M0 0 C24.44967771 22.45349257 39.58939163 53.47069383 41.46264648 86.72924805 C41.54081771 88.89069462 41.57263559 91.0477114 41.58837891 93.21044922 C41.61931641 94.29036133 41.61931641 94.29036133 41.65087891 95.39208984 C41.68577997 100.17789789 40.93485827 103.35866728 38.33837891 107.52294922 C33.06689587 112.52409979 28.77535251 112.67175311 21.75811768 112.64320374 C20.60755469 112.64448537 20.60755469 112.64448537 19.43374801 112.6457929 C16.86189553 112.64744086 14.29010819 112.64193751 11.71826172 112.63647461 C9.87533062 112.63619256 8.03239941 112.63635081 6.18946838 112.63691711 C1.18365673 112.63720441 -3.82213103 112.63131856 -8.82793713 112.62434316 C-14.05832486 112.61809841 -19.28871312 112.61750493 -24.519104 112.61631775 C-34.42482214 112.61320775 -44.33052925 112.60499881 -54.23624253 112.59496826 C-65.51302372 112.58379686 -76.78980544 112.57829408 -88.06659079 112.57327282 C-111.26494033 112.56281594 -134.4632801 112.54522288 -157.66162109 112.52294922 C-156.90331699 114.88310681 -156.13799681 117.2406086 -155.36865234 119.59716797 C-155.05257019 120.58469055 -155.05257019 120.58469055 -154.73010254 121.59216309 C-151.13443462 132.54766113 -145.29074201 141.89605595 -137.66162109 150.52294922 C-137.15501953 151.12365234 -136.64841797 151.72435547 -136.12646484 152.34326172 C-122.09354148 167.77588844 -99.26680588 176.65136101 -78.78662109 177.6652832 C-63.64571788 178.11013779 -49.23065338 177.93217629 -34.66162109 173.52294922 C-33.61941406 173.20946533 -33.61941406 173.20946533 -32.55615234 172.88964844 C-17.76788329 168.25964394 -5.33287612 160.34536177 6.43603516 150.39404297 C9.78931022 148.23224114 11.42604179 147.85195364 15.33837891 148.52294922 C18.36362625 150.84416435 20.25275992 154.36407375 22.33837891 157.52294922 C22.82242188 158.24708008 23.30646484 158.97121094 23.80517578 159.71728516 C25.45891277 162.20390423 27.08999622 164.70391758 28.71337891 167.21044922 C29.24979004 168.03005127 29.78620117 168.84965332 30.33886719 169.6940918 C33.01628225 173.91881069 35.16642169 177.37986526 35.33837891 182.52294922 C29.96384708 195.62337054 11.75066926 204.56274145 -0.51318359 209.86279297 C-41.29053899 226.58811473 -87.63275146 228.88850174 -128.76245117 212.1315918 C-161.24502748 198.35264826 -184.13025052 172.24123071 -197.41162109 140.14794922 C-209.58788836 107.19798272 -206.54235715 71.15152263 -192.52758789 39.39477539 C-179.24995471 10.70023657 -154.24903567 -12.71266561 -124.73974609 -24.04345703 C-81.18632001 -39.17872439 -34.64344972 -30.79530867 0 0 Z M-139.66162109 38.52294922 C-146.58710818 47.22959193 -152.45917337 56.51071059 -154.66162109 67.52294922 C-106.15162109 67.52294922 -57.64162109 67.52294922 -7.66162109 67.52294922 C-10.83392885 51.66141044 -22.9573914 37.4764666 -35.87255859 28.22216797 C-69.6002247 6.95210775 -111.31209137 8.2679593 -139.66162109 38.52294922 Z " fill="#EE4C2C" transform="translate(2227.66162109375,460.47705078125)"/>
<path d="M0 0 C23.31136001 20.33297086 39.42912506 50.27230162 42.625 81.1875 C42.80766285 85.23009816 42.85538144 89.26617116 42.875 93.3125 C42.9059375 94.91931641 42.9059375 94.91931641 42.9375 96.55859375 C42.94523437 98.11126953 42.94523437 98.11126953 42.953125 99.6953125 C42.96714355 101.09740967 42.96714355 101.09740967 42.98144531 102.52783203 C42.52701691 105.9186149 41.81039169 107.53042165 39.625 110.1875 C34.4750931 113.57894488 29.72049599 114.77037008 23.5637207 114.66851807 C22.79326101 114.67193577 22.02280132 114.67535347 21.22899437 114.67887473 C18.66920113 114.68541886 16.11047648 114.66353629 13.55078125 114.64160156 C11.70726038 114.64047233 9.86373772 114.64110843 8.0202179 114.64337158 C3.03102258 114.64451669 -1.95778611 114.62104015 -6.94689178 114.59307575 C-12.16656013 114.56802833 -17.38623786 114.56571746 -22.60595703 114.56097412 C-32.48328914 114.54855418 -42.36044362 114.51574578 -52.2376976 114.47557616 C-63.48552794 114.43082796 -74.73336688 114.40886373 -85.98126411 114.38879442 C-109.11260778 114.34701235 -132.24379393 114.27667931 -155.375 114.1875 C-154.61278766 116.71679667 -153.84356793 119.24360977 -153.0703125 121.76953125 C-152.85802002 122.47662231 -152.64572754 123.18371338 -152.42700195 123.91223145 C-146.60643045 142.82636895 -133.76334562 157.87807817 -116.48046875 167.375 C-90.73427797 180.96635 -60.35615751 183.43497442 -32.375 175.1875 C-17.2414959 170.45160342 -3.41440228 162.38602765 8.3125 151.75 C10.625 150.1875 10.625 150.1875 13.5 149.4375 C21.28223762 151.30523703 26.06044344 161.63952678 30 168.0625 C30.53238281 168.91585937 31.06476562 169.76921875 31.61328125 170.6484375 C37.42425099 179.99330486 37.42425099 179.99330486 36.625 186.1875 C26.23601221 204.24892047 -2.63543164 214.10294621 -21.54296875 219.37109375 C-61.67919404 230.10531166 -104.93770576 226.84292124 -141.40234375 206.53515625 C-169.89634695 190.06152949 -190.76143303 161.79241303 -199.375 130.1875 C-207.35595396 97.16171143 -203.06970184 61.63322213 -186.1171875 31.98828125 C-167.65336435 2.3054086 -141.25112607 -18.48425649 -107.1171875 -27 C-68.55548437 -35.37247834 -30.03396464 -25.36511167 0 0 Z M-138.34765625 40.8125 C-145.25903039 48.90906161 -150.78738144 58.83702576 -153.375 69.1875 C-104.535 69.1875 -55.695 69.1875 -5.375 69.1875 C-12.68664144 47.25257569 -27.90605015 32.04822883 -48.34765625 21.6796875 C-79.9842317 7.45813138 -114.84081025 16.32797325 -138.34765625 40.8125 Z " fill="#EE4C2C" transform="translate(2517.375,458.8125)"/>
<path d="M0 0 C1.09441406 0.96679688 1.09441406 0.96679688 2.2109375 1.953125 C25.3216945 23.64893769 37.73423753 55.76776532 39 87 C39.53250552 118.66912028 29.53651368 148.77187737 9 173 C8.57493164 173.50869629 8.14986328 174.01739258 7.71191406 174.54150391 C-13.54471059 199.7727495 -44.77221391 215.04439811 -77.4375 218.375 C-111.74307168 221.30121218 -146.31855597 212.21528601 -173 190 C-176.41643181 187.08231736 -179.73027535 184.08065894 -183 181 C-183.67546875 180.38898438 -184.3509375 179.77796875 -185.046875 179.1484375 C-205.49902219 159.92341915 -218.82181999 129.15962316 -220.12597656 101.30981445 C-221.06307448 65.75643821 -212.18453383 32.9100283 -187.35546875 6.45703125 C-186.57816406 5.64621094 -185.80085938 4.83539063 -185 4 C-184.19175781 3.11699219 -183.38351562 2.23398437 -182.55078125 1.32421875 C-163.28107755 -19.04002716 -136.46714423 -30.96425732 -109 -35 C-108.13375 -35.13148438 -107.2675 -35.26296875 -106.375 -35.3984375 C-66.57849422 -40.37300072 -29.45943848 -26.27253352 0 0 Z M-148 31 C-149.03253906 31.88945312 -149.03253906 31.88945312 -150.0859375 32.796875 C-159.03047647 41.0696897 -165.77591304 52.63223656 -170 64 C-170.391875 65.04671875 -170.78375 66.0934375 -171.1875 67.171875 C-177.54526387 87.03988711 -175.25982059 108.87370422 -166.1875 127.4375 C-163.06573402 133.49675854 -159.49699554 138.86057652 -155 144 C-154.48179688 144.66 -153.96359375 145.32 -153.4296875 146 C-139.97455239 162.64016709 -118.69969631 171.37373841 -97.8828125 173.74609375 C-74.64364051 175.26575791 -52.85814772 167.96223187 -35 153 C-19.26639094 139.03990565 -9.45370732 119.9028086 -7 99 C-5.70700722 77.11858372 -11.76299064 55.279167 -26.5 38.6875 C-27.99233301 37.11767566 -29.49170538 35.55449464 -31 34 C-31.54011719 33.38640625 -32.08023437 32.7728125 -32.63671875 32.140625 C-45.80804489 17.67539025 -67.08196174 9.7732797 -86.1953125 8.71875 C-109.19745948 7.96771289 -130.72769451 15.86507011 -148 31 Z " fill="#EE4C2C" transform="translate(1639,465)"/>
</svg>
